<?xml version="1.0" encoding="UTF-8" standalone="no"?>
<svg
   xmlns:dc="http://purl.org/dc/elements/1.1/"
   xmlns:cc="http://creativecommons.org/ns#"
   xmlns:rdf="http://www.w3.org/1999/02/22-rdf-syntax-ns#"
   xmlns:svg="http://www.w3.org/2000/svg"
   xmlns="http://www.w3.org/2000/svg"
   xmlns:sodipodi="http://sodipodi.sourceforge.net/DTD/sodipodi-0.dtd"
   xmlns:inkscape="http://www.inkscape.org/namespaces/inkscape"
   version="1.0"
   width="204.000000pt"
   height="318.000000pt"
   viewBox="0 0 204.000000 318.000000"
   preserveAspectRatio="xMidYMid meet"
   id="svg3920"
   sodipodi:docname="tvg_logo.svg"
   inkscape:version="0.92.5 (2060ec1f9f, 2020-04-08)">
  <defs
     id="defs3924" />
  <sodipodi:namedview
     pagecolor="#ffffff"
     bordercolor="#666666"
     borderopacity="1"
     objecttolerance="10"
     gridtolerance="10"
     guidetolerance="10"
     inkscape:pageopacity="0"
     inkscape:pageshadow="2"
     inkscape:window-width="1920"
     inkscape:window-height="1060"
     id="namedview3922"
     showgrid="false"
     inkscape:zoom="0.99764151"
     inkscape:cx="-239.92798"
     inkscape:cy="261.35356"
     inkscape:window-x="0"
     inkscape:window-y="25"
     inkscape:window-maximized="0"
     inkscape:current-layer="svg3920" />
  <metadata
     id="metadata3904">
Created by potrace 1.15, written by Peter Selinger 2001-2017
<rdf:RDF>
  <cc:Work
     rdf:about="">
    <dc:format>image/svg+xml</dc:format>
    <dc:type
       rdf:resource="http://purl.org/dc/dcmitype/StillImage" />
    <dc:title></dc:title>
    <dc:creator>
      <cc:Agent>
        <dc:title>Atilim Gunes Baydin</dc:title>
      </cc:Agent>
    </dc:creator>
    <dc:date>10 Oct 2022</dc:date>
  </cc:Work>
</rdf:RDF>
</metadata>
  <g
     id="g3918"
     stroke="none"
     fill="#ffffff"
     transform="translate(0.000000,318.000000) scale(0.100000,-0.100000)">
    <path
       id="path3906"
       d="M1690 2977 c0 -7 20 -42 45 -77 48 -68 56 -106 34 -169 -11 -32 -90 -101 -116 -101 -8 0 -38 -11 -66 -24 -74 -34 -108 -40 -232 -41 -161 -1 -224 -13 -587 -109 -54 -14 -141 -31 -194 -37 -108 -12 -119 -8 -178 58 -44 50 -65 100 -66 158 0 64 19 98 98 179 35 35 59 67 53 70 -12 8 -186 -49 -228 -75 -54 -34 -73 -69 -73 -137 0 -33 7 -76 15 -96 37 -88 119 -195 184 -238 53 -36 192 -19 491 62 283 76 301 79 505 69 l176 -9 102 41 c244 98 325 181 286 293 -15 45 -123 143 -193 177 -47 22 -56 23 -56 6z" />
    <path
       id="path3908"
       d="M1220 2440 c-14 -5 -56 -13 -95 -18 -70 -10 -136 -25 -250 -57 -147 -41 -216 -56 -295 -67 -116 -15 -336 -21 -369 -10 -14 5 -56 7 -94 4 -74 -5 -77 -8 -54 -72 17 -51 79 -131 150 -196 57 -51 87 -68 252 -143 41 -19 59 -36 100 -98 28 -42 58 -89 68 -107 11 -17 29 -42 42 -56 12 -14 28 -42 35 -63 6 -21 22 -50 34 -65 21 -24 110 -184 161 -287 25 -49 37 -50 200 -16 61 13 120 25 132 27 12 2 27 12 32 22 12 22 37 170 51 302 36 345 60 478 89 504 9 9 63 27 119 41 119 29 136 37 222 91 60 37 130 104 130 122 0 27 -83 86 -110 79 -10 -3 -60 6 -110 19 -163 42 -381 64 -440 44z m150 -106 c0 -9 -9 -27 -20 -41 -11 -14 -20 -33 -20 -42 0 -9 -9 -29 -20 -46 -14 -22 -20 -47 -20 -92 0 -34 -5 -65 -11 -69 -6 -3 -34 18 -62 48 -58 61 -84 78 -121 78 -14 0 -27 4 -31 10 -10 16 -156 0 -192 -22 -18 -11 -33 -21 -33 -23 0 -2 -3 -11 -6 -19 -5 -14 -2 -15 21 -6 35 13 41 7 27 -25 -7 -14 -12 -46 -12 -71 0 -39 5 -51 34 -80 29 -29 41 -34 83 -34 43 0 53 4 83 35 28 29 35 43 35 78 0 23 -4 52 -8 65 -12 32 10 29 56 -9 50 -42 50 -75 -2 -122 -21 -19 -61 -42 -90 -52 -28 -9 -51 -20 -51 -24 0 -9 58 -21 97 -21 13 0 46 23 83 60 87 85 101 80 53 -19 -19 -39 -30 -81 -35 -136 -35 -377 -26 -346 -103 -373 -35 -12 -68 -22 -73 -22 -6 0 -26 29 -45 64 -40 72 -227 356 -263 399 -13 16 -24 32 -24 36 0 4 -20 43 -44 86 -25 43 -57 111 -72 152 -33 91 -31 94 81 118 44 10 143 35 220 57 201 58 298 76 398 77 73 1 87 -2 87 -15z m240 5 c136 -31 146 -40 100 -93 -26 -29 -46 -38 -146 -66 -63 -17 -122 -29 -131 -26 -21 8 -12 48 28 131 30 62 33 65 68 65 20 0 56 -5 81 -11z m-1227 -156 c21 -4 33 -15 44 -41 15 -37 43 -135 43 -152 0 -37 -169 51 -237 123 -77 81 -73 90 35 82 48 -3 100 -9 115 -12z" />
    <path
       id="path3910"
       d="M762 2070 c-31 -19 -43 -40 -23 -40 14 0 67 47 61 54 -3 3 -20 -4 -38 -14z" />
    <path
       id="path3912"
       d="M872 1889 c2 -7 10 -15 17 -17 8 -3 12 1 9 9 -2 7 -10 15 -17 17 -8 3 -12 -1 -9 -9z" />
    <path
       id="path3914"
       d="M1516 1021 c-10 -11 -42 -32 -71 -46 -29 -15 -75 -45 -101 -67 -26 -22 -57 -44 -68 -50 -12 -6 -42 -28 -67 -49 -26 -22 -51 -39 -57 -39 -6 0 -23 11 -39 24 -61 51 -241 166 -260 166 -11 0 -53 -29 -94 -64 -41 -36 -115 -95 -164 -133 -50 -38 -94 -78 -100 -90 -9 -22 -72 -63 -95 -63 -12 0 -76 62 -123 121 -65 81 -132 154 -143 157 -17 4 -44 -87 -33 -109 4 -9 23 -34 41 -56 18 -22 47 -57 63 -78 17 -22 57 -67 89 -102 66 -70 88 -77 133 -40 15 13 53 40 83 62 58 40 102 76 202 163 38 33 70 52 86 52 15 0 76 -34 151 -84 70 -47 134 -88 142 -91 10 -4 42 15 85 49 110 88 122 97 223 163 53 35 105 62 116 61 12 -2 61 -57 129 -148 111 -148 131 -169 147 -153 13 13 29 110 22 130 -3 10 -23 38 -43 63 -20 25 -49 63 -64 85 -57 87 -75 111 -109 148 -39 42 -56 46 -81 18z" />
    <path
       id="path3916"
       d="M1525 654 c-33 -19 -87 -49 -120 -65 -61 -31 -130 -79 -175 -122 -41 -39 -48 -40 -88 -10 -88 69 -258 173 -281 173 -13 0 -111 -94 -111 -106 0 -12 -65 -74 -145 -139 -33 -26 -77 -66 -98 -87 l-37 -39 -31 18 c-17 10 -88 73 -156 141 -71 70 -131 121 -138 118 -15 -6 -29 -77 -20 -105 7 -25 183 -192 259 -248 33 -24 71 -43 84 -43 17 0 66 42 178 153 85 83 164 156 175 161 14 7 30 3 58 -12 21 -12 49 -28 62 -35 24 -13 108 -62 177 -104 21 -12 43 -22 50 -23 7 0 52 31 100 69 106 83 254 181 274 181 8 0 60 -53 115 -117 202 -235 238 -257 227 -141 -6 52 -13 70 -40 103 -19 22 -84 102 -146 178 -61 75 -111 137 -112 136 -1 0 -28 -16 -61 -35z" />
  </g>
</svg>
