<?xml version="1.0" encoding="UTF-8" standalone="no"?>
<svg
   xmlns:dc="http://purl.org/dc/elements/1.1/"
   xmlns:cc="http://creativecommons.org/ns#"
   xmlns:rdf="http://www.w3.org/1999/02/22-rdf-syntax-ns#"
   xmlns:svg="http://www.w3.org/2000/svg"
   xmlns="http://www.w3.org/2000/svg"
   xmlns:sodipodi="http://sodipodi.sourceforge.net/DTD/sodipodi-0.dtd"
   xmlns:inkscape="http://www.inkscape.org/namespaces/inkscape"
   version="1.0"
   width="486.000000pt"
   height="486.000000pt"
   viewBox="0 0 486.000000 486.000000"
   preserveAspectRatio="xMidYMid meet"
   id="svg82"
   sodipodi:docname="tvg-logo-2.svg"
   inkscape:version="0.92.5 (2060ec1f9f, 2020-04-08)">
  <defs
     id="defs86" />
  <sodipodi:namedview
     pagecolor="#ffffff"
     bordercolor="#666666"
     borderopacity="1"
     objecttolerance="10"
     gridtolerance="10"
     guidetolerance="10"
     inkscape:pageopacity="0"
     inkscape:pageshadow="2"
     inkscape:window-width="1227"
     inkscape:window-height="895"
     id="namedview84"
     showgrid="false"
     inkscape:zoom="0.46158359"
     inkscape:cx="-4.9415826"
     inkscape:cy="437.33274"
     inkscape:window-x="509"
     inkscape:window-y="25"
     inkscape:window-maximized="0"
     inkscape:current-layer="svg82" />
  <metadata
     id="metadata68">
Created by potrace 1.15, written by Peter Selinger 2001-2017
<rdf:RDF>
  <cc:Work
     rdf:about="">
    <dc:format>image/svg+xml</dc:format>
    <dc:type
       rdf:resource="http://purl.org/dc/dcmitype/StillImage" />
    <dc:title></dc:title>
    <dc:creator>
      <cc:Agent>
        <dc:title>Atilim Gunes Baydin</dc:title>
      </cc:Agent>
    </dc:creator>
    <dc:date>10 Oct 2022</dc:date>
  </cc:Work>
</rdf:RDF>
</metadata>
  <g
     id="g80"
     stroke="none"
     fill="#ffffff"
     transform="translate(0.000000,486.000000) scale(0.100000,-0.100000)">
    <path
       id="path70"
       d="M3930 4653 c0 -9 31 -57 69 -107 38 -50 76 -113 85 -139 19 -56 13 -116 -15 -152 -41 -52 -184 -138 -289 -175 -19 -7 -46 -17 -60 -22 -109 -46 -126 -48 -339 -48 -194 -1 -499 -19 -656 -40 -79 -10 -216 -33 -365 -60 -25 -5 -72 -13 -105 -19 -33 -6 -82 -16 -110 -21 -110 -22 -246 -44 -375 -61 -297 -39 -427 -47 -472 -29 -44 18 -134 83 -184 135 -64 67 -87 125 -88 223 l-1 83 51 47 c28 26 77 67 109 92 106 82 167 143 160 163 -8 18 -32 18 -145 -4 -58 -12 -159 -46 -174 -61 -6 -4 -16 -8 -23 -8 -19 0 -152 -91 -184 -126 -102 -110 -93 -193 44 -394 72 -106 206 -214 322 -261 57 -23 69 -24 254 -22 106 1 214 6 240 12 25 5 73 15 106 21 33 6 92 18 130 27 122 27 149 33 205 43 30 6 78 15 105 20 28 5 76 14 108 20 31 5 85 15 120 21 175 31 402 45 922 58 362 9 372 9 450 35 44 15 89 31 100 35 11 5 32 13 48 20 15 6 39 16 55 22 83 35 222 123 278 176 92 89 106 145 56 224 -71 111 -318 289 -402 289 -21 0 -30 -5 -30 -17z" />
    <path
       id="path72"
       d="M3179 3786 c-3 -3 -124 -10 -270 -16 -375 -16 -493 -25 -589 -50 -19 -5 -62 -14 -95 -21 -33 -7 -64 -15 -70 -19 -5 -4 -37 -12 -70 -19 -33 -7 -76 -17 -95 -21 -32 -9 -72 -15 -250 -40 -161 -23 -223 -30 -340 -39 -234 -19 -434 -22 -615 -10 -99 6 -196 13 -215 14 -82 6 -89 -34 -21 -134 38 -55 204 -221 222 -221 5 0 28 -15 52 -33 41 -31 177 -102 277 -145 49 -21 168 -52 272 -73 65 -12 68 -14 122 -78 30 -36 92 -111 138 -165 46 -54 116 -140 157 -190 86 -107 439 -575 494 -658 46 -67 63 -73 162 -57 149 24 242 35 446 55 83 8 115 31 128 94 20 88 36 183 61 358 49 345 76 504 107 627 8 33 18 76 23 95 7 34 14 54 30 95 29 76 26 72 82 78 210 23 285 39 453 95 111 37 227 82 240 93 5 5 16 9 25 9 20 0 151 97 184 137 35 41 33 88 -4 108 -57 29 -77 35 -180 55 -25 4 -72 13 -105 20 -90 18 -166 28 -305 39 -177 13 -444 24 -451 17z m51 -112 c0 -8 -18 -41 -39 -73 -50 -73 -87 -139 -109 -191 -6 -14 -13 -56 -16 -95 -11 -118 -24 -229 -32 -255 -4 -14 -33 -63 -64 -110 -31 -47 -60 -98 -64 -115 -15 -61 -43 -292 -55 -451 -17 -214 -22 -244 -43 -255 -51 -27 -120 -39 -226 -40 -94 0 -117 3 -137 18 -23 17 -143 164 -235 288 -66 89 -154 188 -261 295 -129 129 -183 194 -276 335 -98 150 -163 281 -163 330 0 13 -4 27 -10 30 -5 3 -10 17 -10 29 0 26 22 36 79 36 19 0 60 4 90 10 31 5 90 14 131 20 78 11 198 34 263 50 20 6 54 14 75 19 20 5 55 15 77 21 39 11 71 19 173 40 26 6 99 17 162 25 63 9 145 20 183 25 37 6 93 10 125 11 31 0 75 4 97 8 22 5 95 9 163 10 104 1 122 -1 122 -15z m575 -23 c28 -5 75 -14 105 -19 68 -11 110 -28 110 -43 0 -16 -59 -70 -96 -89 -16 -8 -40 -22 -54 -30 -14 -9 -52 -27 -85 -40 -33 -13 -64 -26 -70 -30 -5 -4 -23 -10 -40 -13 -16 -3 -59 -12 -95 -20 -36 -8 -103 -16 -150 -17 -134 -4 -140 -3 -140 22 0 26 36 131 61 174 9 17 23 42 31 55 7 13 22 35 33 47 20 24 22 24 180 19 88 -3 183 -10 210 -16z m-2820 -231 c81 -7 140 -7 180 0 101 17 105 16 105 -27 0 -38 13 -100 29 -138 5 -11 14 -36 21 -55 12 -36 20 -55 39 -102 14 -37 2 -37 -139 3 -89 26 -253 110 -372 190 -56 39 -138 116 -138 130 0 18 59 17 275 -1z" />
    <path
       id="path74"
       d="M2375 3409 c-94 -11 -119 -19 -267 -89 -88 -41 -290 -158 -300 -174 -4 -6 -8 -27 -8 -47 l0 -36 158 -78 c235 -115 291 -135 401 -142 70 -4 208 7 291 23 51 10 157 87 283 203 52 49 51 84 -5 138 -65 62 -189 153 -218 159 -14 3 -34 9 -45 13 -82 32 -184 43 -290 30z m316 -153 c30 -15 78 -49 108 -75 l53 -48 -37 -29 c-20 -16 -59 -47 -86 -70 -71 -59 -106 -72 -249 -94 -54 -9 -83 -9 -103 -1 -16 6 -41 11 -56 11 -32 0 -172 55 -290 113 l-83 41 27 22 c14 11 50 33 78 49 111 60 179 95 183 95 2 0 -3 -17 -12 -37 -25 -61 -21 -119 14 -161 36 -45 113 -85 167 -86 72 -2 166 39 207 88 40 49 29 147 -23 203 l-21 21 35 -8 c19 -4 59 -19 88 -34z" />
    <path
       id="path76"
       d="M3544 1560 c-5 -5 -52 -31 -104 -58 -147 -76 -382 -201 -475 -252 -27 -15 -90 -49 -140 -75 -49 -26 -94 -51 -100 -56 -5 -5 -17 -9 -26 -9 -15 0 -180 99 -286 171 -23 16 -45 29 -48 29 -4 0 -19 8 -33 19 -15 10 -43 28 -62 38 -19 11 -58 35 -86 52 l-52 33 -83 -55 c-99 -65 -351 -222 -395 -248 -31 -17 -77 -47 -319 -204 -60 -39 -118 -74 -128 -78 -12 -5 -33 7 -70 41 -29 26 -88 79 -132 117 -43 39 -140 125 -214 192 -75 68 -144 123 -155 123 -17 0 -18 -8 -14 -102 l3 -103 95 -90 c141 -135 361 -347 386 -373 l22 -23 35 20 c19 11 73 44 118 74 161 105 298 192 317 202 19 10 81 50 306 196 183 118 161 112 228 67 31 -21 60 -38 63 -38 3 0 38 -22 78 -49 68 -45 265 -171 333 -212 l30 -19 165 85 c90 46 291 148 447 226 l283 142 47 -44 c26 -25 85 -78 132 -119 47 -41 149 -132 226 -202 78 -70 149 -128 157 -128 18 0 27 42 27 127 l0 65 -67 71 c-38 40 -154 159 -259 265 -191 191 -220 212 -250 182z" />
    <path
       id="path78"
       d="M3235 809 c-214 -109 -397 -198 -405 -198 -8 -1 -42 12 -75 28 -33 16 -105 50 -160 76 -55 26 -152 72 -215 102 -63 30 -132 63 -153 74 -22 10 -44 19 -50 19 -5 0 -47 -26 -91 -58 -45 -33 -121 -86 -171 -120 -49 -34 -148 -102 -220 -152 -71 -50 -176 -122 -232 -160 -56 -38 -104 -74 -108 -80 -12 -20 -37 -9 -142 63 -58 39 -116 79 -128 87 -52 35 -275 190 -338 234 -38 27 -74 45 -82 42 -11 -4 -15 -23 -15 -79 l0 -74 73 -53 c39 -29 88 -65 107 -79 92 -69 477 -331 486 -331 3 0 52 31 108 68 55 38 231 156 390 263 158 107 299 201 312 210 24 16 33 12 321 -132 162 -82 301 -149 306 -149 6 0 56 22 112 49 55 27 145 70 200 96 55 26 141 67 190 90 50 24 131 62 180 84 50 23 107 51 128 61 22 11 44 20 49 20 14 0 75 -55 358 -320 213 -201 234 -219 248 -220 9 0 12 27 12 103 l0 102 -97 96 c-54 52 -161 153 -238 224 -77 71 -161 148 -187 172 -26 24 -55 42 -65 42 -10 -1 -193 -91 -408 -200z" />
  </g>
</svg>
